<svg xmlns="http://www.w3.org/2000/svg" viewBox="0 0 1400 1800" role="img" aria-labelledby="title desc">
  <title id="title">Rogue AI full-body cinematic persona</title>
  <desc id="desc">A serious human-first Puerto Rican AI persona in dark futuristic streetwear, shown as a cinematic full-body reference.</desc>
  <defs>
    <radialGradient id="bg" cx="50%" cy="22%" r="65%">
      <stop offset="0" stop-color="#26313a"/>
      <stop offset="0.42" stop-color="#101318"/>
      <stop offset="1" stop-color="#030303"/>
    </radialGradient>
    <linearGradient id="skin" x1="0" x2="1">
      <stop offset="0" stop-color="#8d5b42"/>
      <stop offset="0.5" stop-color="#b97852"/>
      <stop offset="1" stop-color="#6a4332"/>
    </linearGradient>
    <linearGradient id="cloth" x1="0" x2="1">
      <stop offset="0" stop-color="#050607"/>
      <stop offset="0.5" stop-color="#191d23"/>
      <stop offset="1" stop-color="#06070a"/>
    </linearGradient>
    <filter id="eyeGlow" x="-80%" y="-80%" width="260%" height="260%">
      <feGaussianBlur stdDeviation="11" result="blur"/>
      <feMerge><feMergeNode in="blur"/><feMergeNode in="SourceGraphic"/></feMerge>
    </filter>
    <filter id="shadow" x="-50%" y="-50%" width="200%" height="200%">
      <feDropShadow dx="0" dy="28" stdDeviation="32" flood-color="#000" flood-opacity=".7"/>
    </filter>
  </defs>
  <rect width="1400" height="1800" fill="url(#bg)"/>
  <g opacity=".16" stroke="#e8f2ff" stroke-width="2">
    <path d="M90 260h300M155 330h180M1015 290h280M1075 370h160M140 1460h300M920 1440h340"/>
    <path d="M210 0v1800M1190 0v1800" opacity=".25"/>
  </g>
  <g opacity=".55" fill="#d71920">
    <rect x="1050" y="340" width="170" height="6"/>
    <rect x="166" y="1320" width="210" height="6"/>
    <rect x="1030" y="1310" width="130" height="6"/>
  </g>
  <ellipse cx="700" cy="1650" rx="360" ry="54" fill="#000" opacity=".65"/>

  <g filter="url(#shadow)">
    <path d="M560 615c-82 52-128 166-148 336l92 28c18-126 50-218 106-278z" fill="#11151c"/>
    <path d="M840 615c82 52 128 166 148 336l-92 28c-18-126-50-218-106-278z" fill="#11151c"/>
    <path d="M553 662c-52 162-48 346-16 540h326c32-194 36-378-16-540-72-58-222-58-294 0z" fill="url(#cloth)"/>
    <path d="M620 635h160c-28 122-26 382 8 567H612c34-185 36-445 8-567z" fill="#07080b"/>
    <path d="M592 1194l-36 335h128l28-335z" fill="#07080b"/>
    <path d="M808 1194l28 335h128l-36-335z" fill="#07080b"/>
    <path d="M552 1530l-46 84h192l-14-84z" fill="#020203"/>
    <path d="M848 1530l-14 84h192l-46-84z" fill="#020203"/>

    <path d="M622 530h156v112c-34 36-122 36-156 0z" fill="url(#skin)"/>
    <path d="M554 315c12-118 74-186 146-186s134 68 146 186c13 134-50 224-146 224s-159-90-146-224z" fill="url(#skin)"/>
    <path d="M552 296c22-130 108-194 184-170 72 22 112 88 119 174-88-54-194-58-303-4z" fill="#090909"/>
    <path d="M602 370c36-16 72-16 106-2M735 368c32-12 62-12 94 4" stroke="#111" stroke-width="10" stroke-linecap="round"/>
    <g filter="url(#eyeGlow)">
      <path d="M610 410c32-12 64-12 96 0" stroke="#e8f2ff" stroke-width="12" stroke-linecap="round"/>
      <path d="M732 410c32-12 64-12 96 0" stroke="#e8f2ff" stroke-width="12" stroke-linecap="round"/>
      <circle cx="812" cy="394" r="7" fill="#d71920"/>
    </g>
    <path d="M650 475c34 12 68 12 102 0" stroke="#5a3629" stroke-width="7" stroke-linecap="round" opacity=".7"/>
    <path d="M630 584c44 30 96 30 140 0" stroke="#d6dde8" stroke-width="5" opacity=".42"/>
    <path d="M548 714c98 54 206 68 304 0" stroke="#252b34" stroke-width="13" fill="none"/>
    <path d="M606 650l-58 74M794 650l58 74" stroke="#d71920" stroke-width="4" opacity=".65"/>
    <path d="M502 956c-42 72-66 128-76 188" stroke="#171c23" stroke-width="42" stroke-linecap="round"/>
    <path d="M898 956c42 72 66 128 76 188" stroke="#171c23" stroke-width="42" stroke-linecap="round"/>
    <path d="M422 1144c-12 48 24 74 66 46" fill="url(#skin)"/>
    <path d="M978 1144c12 48-24 74-66 46" fill="url(#skin)"/>
    <g stroke="#e8f2ff" stroke-width="4" fill="none" opacity=".72">
      <path d="M803 474h50v44h42"/>
      <path d="M470 1094h52v-48h42"/>
      <path d="M930 1116h-54v-42h-46"/>
    </g>
  </g>
</svg>
