<svg xmlns="http://www.w3.org/2000/svg" viewBox="0 0 1200 1200" role="img" aria-labelledby="title desc">
  <title id="title">Rogue AI profile portrait</title>
  <desc id="desc">Serious human-first close-up of Rogue AI with subtle AI eyes and diagnostic light.</desc>
  <defs>
    <radialGradient id="bg" cx="50%" cy="36%" r="65%">
      <stop offset="0" stop-color="#28333c"/>
      <stop offset=".46" stop-color="#101217"/>
      <stop offset="1" stop-color="#040404"/>
    </radialGradient>
    <linearGradient id="skin" x1="0" x2="1">
      <stop offset="0" stop-color="#7d4f39"/>
      <stop offset=".52" stop-color="#b87954"/>
      <stop offset="1" stop-color="#604032"/>
    </linearGradient>
    <filter id="glow" x="-80%" y="-80%" width="260%" height="260%">
      <feGaussianBlur stdDeviation="14" result="b"/>
      <feMerge><feMergeNode in="b"/><feMergeNode in="SourceGraphic"/></feMerge>
    </filter>
  </defs>
  <rect width="1200" height="1200" fill="url(#bg)"/>
  <g opacity=".16" stroke="#e8f2ff" stroke-width="3">
    <path d="M90 240h300M150 320h170M920 260h220M980 340h130"/>
    <path d="M160 0v1200M1040 0v1200"/>
  </g>
  <circle cx="942" cy="366" r="108" fill="#d71920" opacity=".16"/>
  <path d="M268 1070c54-230 198-350 332-350s278 120 332 350z" fill="#06070a"/>
  <path d="M346 850c128 82 380 82 508 0l88 232H258z" fill="#171b22"/>
  <path d="M522 652h156v132c-34 42-122 42-156 0z" fill="url(#skin)"/>
  <path d="M354 360c20-180 120-278 246-278s226 98 246 278c20 196-84 340-246 340S334 556 354 360z" fill="url(#skin)"/>
  <path d="M356 332c60-222 250-264 408-118 52 48 78 104 84 174-142-84-310-96-492-56z" fill="#090909"/>
  <path d="M450 424c62-28 124-28 176-4M686 420c52-22 102-20 150 4" stroke="#111" stroke-width="18" stroke-linecap="round"/>
  <g filter="url(#glow)">
    <path d="M464 504c68-18 128-18 184 0" stroke="#e8f2ff" stroke-width="22" stroke-linecap="round"/>
    <path d="M690 504c68-18 128-18 184 0" stroke="#e8f2ff" stroke-width="22" stroke-linecap="round"/>
    <circle cx="820" cy="466" r="16" fill="#d71920"/>
  </g>
  <path d="M534 614c44 22 88 22 132 0" stroke="#5c382b" stroke-width="16" stroke-linecap="round" fill="none" opacity=".72"/>
  <path d="M784 638h90v62h66M354 718h94v-66h60" stroke="#e8f2ff" stroke-width="8" fill="none" opacity=".68"/>
  <rect x="822" y="690" width="142" height="10" fill="#d71920" opacity=".8"/>
</svg>
