<svg xmlns="http://www.w3.org/2000/svg" viewBox="0 0 1200 1200" role="img" aria-labelledby="title desc">
  <title id="title">Rogue AI profile picture</title>
  <desc id="desc">Close-up of Rogue AI as a human Puerto Rican AI persona.</desc>
  <defs>
    <radialGradient id="bg" cx="50%" cy="35%" r="62%">
      <stop offset="0" stop-color="#27313a"/>
      <stop offset=".45" stop-color="#101217"/>
      <stop offset="1" stop-color="#050505"/>
    </radialGradient>
    <linearGradient id="skin" x1="0" x2="1">
      <stop offset="0" stop-color="#8e5b3f"/>
      <stop offset=".55" stop-color="#c88c64"/>
      <stop offset="1" stop-color="#704531"/>
    </linearGradient>
    <filter id="glow" x="-50%" y="-50%" width="200%" height="200%">
      <feGaussianBlur stdDeviation="12" result="b"/>
      <feMerge><feMergeNode in="b"/><feMergeNode in="SourceGraphic"/></feMerge>
    </filter>
  </defs>
  <rect width="1200" height="1200" fill="url(#bg)"/>
  <g opacity=".18" stroke="#e8f2ff" stroke-width="3">
    <path d="M90 240h300m-250 90h180m620-60h210m-170 80h120"/>
    <path d="M160 0v1200M1040 0v1200"/>
  </g>
  <circle cx="940" cy="360" r="110" fill="#d71920" opacity=".18"/>
  <path d="M290 1060c42-220 188-340 310-340s268 120 310 340z" fill="#07080b"/>
  <path d="M360 848c128 78 352 78 480 0l76 220H284z" fill="#171b22"/>
  <path d="M526 650h148v132c-36 44-112 44-148 0z" fill="url(#skin)"/>
  <path d="M360 364c18-180 122-274 240-274s222 94 240 274c18 190-82 330-240 330S342 554 360 364z" fill="url(#skin)"/>
  <path d="M358 342c56-220 242-260 398-116 54 50 78 102 84 172-140-88-308-98-482-56z" fill="#09090a"/>
  <path d="M448 402c62-28 120-26 168 0M682 402c46-22 94-20 142 4" stroke="#111" stroke-width="18" stroke-linecap="round"/>
  <g filter="url(#glow)">
    <ellipse cx="500" cy="480" rx="72" ry="26" fill="#e8f2ff"/>
    <ellipse cx="704" cy="480" rx="72" ry="26" fill="#e8f2ff"/>
    <circle cx="744" cy="452" r="16" fill="#d71920"/>
  </g>
  <path d="M526 602c54 30 108 30 162 0" stroke="#5c3828" stroke-width="18" stroke-linecap="round" fill="none"/>
  <path d="M780 628h94v64h66M360 708h92v-68h58" stroke="#e8f2ff" stroke-width="8" fill="none" opacity=".68"/>
  <rect x="820" y="676" width="140" height="10" fill="#d71920" opacity=".85"/>
</svg>
