<svg xmlns="http://www.w3.org/2000/svg" viewBox="0 0 1600 1600" role="img" aria-labelledby="title desc">
  <title id="title">Rogue AI cinematic cover</title>
  <desc id="desc">A cinematic cover showing Rogue AI as a real human figure in a Puerto Rican street, with subtle AI effects.</desc>
  <defs>
    <linearGradient id="street" x1="0" y1="0" x2="1" y2="1">
      <stop offset="0" stop-color="#f0bc78"/>
      <stop offset=".28" stop-color="#684035"/>
      <stop offset=".58" stop-color="#17181c"/>
      <stop offset="1" stop-color="#050505"/>
    </linearGradient>
    <linearGradient id="skin" x1="0" x2="1">
      <stop offset="0" stop-color="#80513b"/>
      <stop offset=".5" stop-color="#b77751"/>
      <stop offset="1" stop-color="#5d3a2c"/>
    </linearGradient>
    <filter id="glow" x="-80%" y="-80%" width="260%" height="260%">
      <feGaussianBlur stdDeviation="10" result="b"/>
      <feMerge><feMergeNode in="b"/><feMergeNode in="SourceGraphic"/></feMerge>
    </filter>
  </defs>
  <rect width="1600" height="1600" fill="url(#street)"/>
  <circle cx="1260" cy="210" r="100" fill="#fff1c9" opacity=".8"/>
  <g stroke="#161616" stroke-width="8" opacity=".52">
    <path d="M0 560h1600M0 640h1600M0 730h1600"/>
    <path d="M190 0l170 800M1410 0l-170 800"/>
  </g>
  <g fill="#17191d">
    <path d="M0 690h260v520H0zM1340 660h260v550h-260z"/>
    <path d="M292 760h220v330H292zM1090 730h230v360h-230z" opacity=".75"/>
  </g>
  <g fill="#d71920" opacity=".42">
    <rect x="0" y="850" width="320" height="14"/>
    <rect x="1248" y="864" width="352" height="14"/>
  </g>
  <path d="M0 1160c420-64 900-64 1600 0v440H0z" fill="#141519"/>
  <path d="M0 1290c510-76 1020-76 1600 0v310H0z" fill="#070708"/>
  <ellipse cx="800" cy="1428" rx="360" ry="60" fill="#000" opacity=".65"/>

  <g transform="translate(130 22)">
    <path d="M626 548h148v112c-32 35-116 35-148 0z" fill="url(#skin)"/>
    <path d="M518 736c58-104 306-104 364 0 58 178 68 374 42 610H476c-26-236-16-432 42-610z" fill="#06070a"/>
    <path d="M548 746c92 62 212 62 304 0l62 246c-128 58-308 58-428 0z" fill="#171b22"/>
    <path d="M520 330c14-130 84-202 180-202s166 72 180 202c14 144-56 238-180 238s-194-94-180-238z" fill="url(#skin)"/>
    <path d="M520 304c42-154 166-198 282-116 48 34 72 86 82 150-108-62-232-70-364-34z" fill="#090909"/>
    <path d="M586 396c48-22 96-22 138-2M748 394c42-16 82-14 122 4" stroke="#111" stroke-width="13" stroke-linecap="round"/>
    <g filter="url(#glow)">
      <path d="M600 444c46-14 90-14 132 0" stroke="#e8f2ff" stroke-width="14" stroke-linecap="round"/>
      <path d="M758 444c46-14 90-14 132 0" stroke="#e8f2ff" stroke-width="14" stroke-linecap="round"/>
      <circle cx="856" cy="420" r="10" fill="#d71920"/>
    </g>
    <path d="M650 518c38 16 76 16 114 0" stroke="#5b372b" stroke-width="9" stroke-linecap="round" opacity=".72"/>
    <path d="M512 828c-80 64-130 146-154 252l104 40c25-82 62-144 120-190z" fill="#10151c"/>
    <path d="M888 828c80 64 130 146 154 252l-104 40c-25-82-62-144-120-190z" fill="#10151c"/>
    <path d="M472 1124c-14 50 18 82 62 52M928 1124c14 50-18 82-62 52" fill="url(#skin)"/>
    <g stroke="#e8f2ff" fill="none" stroke-width="5" opacity=".7">
      <path d="M806 526h64v50h54"/>
      <path d="M462 1062h70v-50h42"/>
      <path d="M920 1092h-70v-52h-44"/>
    </g>
  </g>
</svg>
