<svg xmlns="http://www.w3.org/2000/svg" viewBox="0 0 1400 1800" role="img" aria-labelledby="title desc">
  <title id="title">Rogue AI full-body persona</title>
  <desc id="desc">Puerto Rican human AI persona in black futuristic streetwear with subtle glowing eyes and data glitches.</desc>
  <defs>
    <radialGradient id="bgGlow" cx="50%" cy="16%" r="58%">
      <stop offset="0" stop-color="#34404a"/>
      <stop offset="0.36" stop-color="#121419"/>
      <stop offset="1" stop-color="#050505"/>
    </radialGradient>
    <linearGradient id="skin" x1="0" x2="1">
      <stop offset="0" stop-color="#9e6847"/>
      <stop offset="0.55" stop-color="#c58a62"/>
      <stop offset="1" stop-color="#7b4e37"/>
    </linearGradient>
    <linearGradient id="jacket" x1="0" x2="1">
      <stop offset="0" stop-color="#050608"/>
      <stop offset="0.5" stop-color="#171a20"/>
      <stop offset="1" stop-color="#06070a"/>
    </linearGradient>
    <filter id="softGlow" x="-40%" y="-40%" width="180%" height="180%">
      <feGaussianBlur stdDeviation="10" result="blur"/>
      <feMerge>
        <feMergeNode in="blur"/>
        <feMergeNode in="SourceGraphic"/>
      </feMerge>
    </filter>
  </defs>
  <rect width="1400" height="1800" fill="url(#bgGlow)"/>
  <g opacity=".18" stroke="#e8f2ff" stroke-width="2">
    <path d="M60 250h300m-260 80h180m760-40h260m-210 70h160M170 1420h360m520-20h280"/>
    <path d="M220 0v1800M1180 0v1800" opacity=".25"/>
  </g>
  <g opacity=".18" fill="#d71920">
    <rect x="1040" y="260" width="180" height="8"/>
    <rect x="160" y="1320" width="220" height="8"/>
    <rect x="1120" y="1360" width="120" height="8"/>
  </g>
  <ellipse cx="700" cy="1660" rx="370" ry="54" fill="#000" opacity=".55"/>

  <g transform="translate(0 10)">
    <path d="M548 590c-84 76-128 206-150 354l106 28c13-122 46-232 106-298z" fill="#101319"/>
    <path d="M852 590c84 76 128 206 150 354l-106 28c-13-122-46-232-106-298z" fill="#101319"/>
    <path d="M556 642c-44 158-40 330-13 535h314c27-205 31-377-13-535-82-54-206-55-288 0z" fill="url(#jacket)"/>
    <path d="M612 626c28 128 28 332 8 551h160c-20-219-20-423 8-551-52-26-124-26-176 0z" fill="#090a0d"/>
    <path d="M596 668l-46 520h112l20-520zM804 668l20 520h112l-46-520z" fill="#11151c"/>
    <path d="M614 1186l-34 332h120l22-332zM786 1186l22 332h120l-34-332z" fill="#0b0d11"/>
    <path d="M578 1516l-40 82h174l-12-82zM822 1516l-12 82h174l-40-82z" fill="#050608"/>
    <path d="M628 536h144v110c-34 38-110 38-144 0z" fill="url(#skin)"/>
    <path d="M560 320c12-108 86-174 140-174s128 66 140 174c12 118-44 210-140 210s-152-92-140-210z" fill="url(#skin)"/>
    <path d="M560 306c10-120 82-168 140-168s138 56 152 160c-64-40-172-48-292 8z" fill="#101010"/>
    <path d="M604 334c44-18 82-16 116 0M746 334c30-14 60-12 92 4" stroke="#171717" stroke-width="10" stroke-linecap="round"/>
    <g filter="url(#softGlow)">
      <ellipse cx="642" cy="382" rx="42" ry="16" fill="#e8f2ff"/>
      <ellipse cx="770" cy="382" rx="42" ry="16" fill="#e8f2ff"/>
      <circle cx="786" cy="368" r="8" fill="#d71920"/>
    </g>
    <path d="M652 458c36 18 72 18 108 0" stroke="#57331f" stroke-width="9" stroke-linecap="round" fill="none" opacity=".72"/>
    <path d="M640 578c48 46 96 46 144 0" stroke="#d6dde8" stroke-width="6" opacity=".5"/>
    <path d="M500 728c70 32 138 44 202 44s132-12 202-44" stroke="#252a33" stroke-width="16" fill="none"/>
    <path d="M552 674c78 58 218 58 296 0" stroke="#222832" stroke-width="8" fill="none"/>
    <path d="M632 608l-74 72M768 608l74 72" stroke="#d71920" stroke-width="5" opacity=".7"/>
    <path d="M602 552c-20 24-42 28-60 18M798 552c20 24 42 28 60 18" stroke="#e8f2ff" stroke-width="5" opacity=".35"/>
    <path d="M510 934c-42 68-70 132-80 192M890 934c42 68 70 132 80 192" stroke="#1f252d" stroke-width="44" stroke-linecap="round"/>
    <path d="M430 1128c-16 52 20 78 62 50M970 1128c16 52-20 78-62 50" fill="url(#skin)"/>
    <g stroke="#e8f2ff" stroke-width="4" fill="none" opacity=".72">
      <path d="M812 456h52v50h42"/>
      <path d="M520 1060h62v-58h38"/>
      <path d="M908 1086h-52v-40h-46"/>
    </g>
    <g fill="#d71920" opacity=".85">
      <rect x="904" y="1014" width="80" height="6"/>
      <rect x="468" y="1032" width="66" height="6"/>
      <rect x="828" y="488" width="48" height="6"/>
    </g>
  </g>
</svg>
